<svg id="Layer_1" data-name="Layer 1" xmlns="http://www.w3.org/2000/svg" viewBox="0 0 73.07 73.07"><title>Stelligent_</title><path d="M36.53,62.6A26.07,26.07,0,1,1,62.6,36.53,26.09,26.09,0,0,1,36.53,62.6Z" fill="#efefef"/><path d="M36.53,11.33a25.21,25.21,0,1,1-25.2,25.2,25.24,25.24,0,0,1,25.2-25.2m0-1.73A26.94,26.94,0,1,0,63.47,36.53,26.93,26.93,0,0,0,36.53,9.6Z" fill="#898d8d"/><line x1="36.78" y1="53.16" x2="36.78" y2="27.41" fill="none" stroke="#d76127" stroke-linecap="round" stroke-miterlimit="10" stroke-width="1.73"/><polygon points="42.44 32 41.43 32.94 36.78 27.94 32.13 32.94 31.12 32 36.78 25.91 42.44 32" fill="#d76127"/><line x1="25.78" y1="47.16" x2="25.78" y2="21.41" fill="none" stroke="#d76127" stroke-linecap="round" stroke-miterlimit="10" stroke-width="1.73"/><polygon points="31.45 26 30.43 26.94 25.79 21.94 21.14 26.94 20.13 26 25.79 19.91 31.45 26" fill="#d76127"/><line x1="47.28" y1="47.16" x2="47.28" y2="21.41" fill="none" stroke="#d76127" stroke-linecap="round" stroke-miterlimit="10" stroke-width="1.73"/><polygon points="52.95 26 51.93 26.94 47.29 21.94 42.64 26.94 41.63 26 47.29 19.91 52.95 26" fill="#d76127"/><circle cx="20.48" cy="53.51" r="10.01" fill="#efefef"/><path d="M20.48,44.37a9.15,9.15,0,1,1-9.15,9.14,9.15,9.15,0,0,1,9.15-9.14m0-1.73A10.88,10.88,0,1,0,31.35,53.51,10.87,10.87,0,0,0,20.48,42.64Z" fill="#898d8d"/><polygon points="16.99 60.09 19.18 53.87 16.82 53.87 21.55 47.15 25.55 47.15 21.39 52.51 24.21 52.51 16.99 60.09" fill="#d76127"/></svg>