<?xml version="1.0" standalone="no"?>
<!DOCTYPE svg PUBLIC "-//W3C//DTD SVG 20010904//EN"
 "http://www.w3.org/TR/2001/REC-SVG-20010904/DTD/svg10.dtd">
<svg version="1.0" xmlns="http://www.w3.org/2000/svg"
 width="465.000000pt" height="145.000000pt" viewBox="0 0 465.000000 145.000000"
 preserveAspectRatio="xMidYMid meet">

<g transform="translate(0.000000,145.000000) scale(0.100000,-0.100000)"
fill="#000000" stroke="none">
<path d="M0 725 l0 -725 2325 0 2325 0 0 725 0 725 -2325 0 -2325 0 0 -725z
m740 542 c-3 -3 -38 32 -79 77 l-75 81 79 -77 c44 -43 77 -79 75 -81z m-180
113 c-26 -37 -37 -125 -21 -171 9 -27 9 -31 -1 -21 -8 8 -13 40 -13 85 0 59 4
78 23 105 13 17 26 32 28 32 3 0 -4 -14 -16 -30z m2065 -270 c22 19 18 6 -5
-15 -20 -18 -20 -18 -18 96 l2 114 3 -103 c3 -90 6 -102 18 -92z m1374 136
c-1 -20 -2 -20 -6 -1 -3 11 -12 29 -22 40 -16 20 -16 20 7 1 12 -11 21 -29 21
-40z m-2229 20 c0 -2 -8 -10 -17 -17 -16 -13 -17 -12 -4 4 13 16 21 21 21 13z
m2122 -25 c2 -17 1 -28 -4 -25 -8 5 -12 54 -4 54 2 0 6 -13 8 -29z m-3092 -39
c0 -3 -9 3 -20 13 -11 10 -20 23 -20 28 0 6 9 0 20 -13 11 -13 20 -25 20 -28z
m681 21 c13 -16 12 -17 -3 -4 -17 13 -22 21 -14 21 2 0 10 -8 17 -17z m193
-90 c-68 -97 -68 -97 -85 -76 -12 16 -12 17 2 6 13 -11 23 -1 67 62 29 41 55
75 58 75 3 0 -16 -30 -42 -67z m-719 -92 c-3 -2 -6 -2 -7 0 -2 3 -34 38 -73
79 l-70 75 77 -74 c43 -41 75 -77 73 -80z m530 14 c27 -38 41 -63 33 -55 -8 8
-37 47 -63 85 -27 39 -41 63 -33 55 8 -8 37 -46 63 -85z m758 88 c-7 -2 -19
-2 -25 0 -7 3 -2 5 12 5 14 0 19 -2 13 -5z m1450 0 c-7 -2 -19 -2 -25 0 -7 3
-2 5 12 5 14 0 19 -2 13 -5z m-3039 -80 c69 -74 53 -66 -24 13 -36 36 -56 60
-45 53 11 -7 42 -37 69 -66z m1126 58 c-5 -11 -15 -23 -21 -27 -6 -3 -3 5 6
20 20 30 30 35 15 7z m1527 -3 c-3 -8 -6 -5 -6 6 -1 11 2 17 5 13 3 -3 4 -12
1 -19z m90 -285 c-1 -59 -3 -14 -3 102 0 116 2 164 3 108 2 -56 2 -151 0 -210z
m500 0 c-1 -59 -3 -14 -3 102 0 116 2 164 3 108 2 -56 2 -151 0 -210z m90 0
c-1 -59 -3 -14 -3 102 0 116 2 164 3 108 2 -56 2 -151 0 -210z m-1626 270 c13
-16 12 -17 -3 -4 -17 13 -22 21 -14 21 2 0 10 -8 17 -17z m489 -8 c13 -14 21
-25 18 -25 -2 0 -15 11 -28 25 -13 14 -21 25 -18 25 2 0 15 -11 28 -25z m1248
-5 c-22 -30 -35 -41 -22 -17 9 16 36 47 41 47 2 0 -6 -13 -19 -30z m283 13
c13 -16 12 -17 -3 -4 -10 7 -18 15 -18 17 0 8 8 3 21 -13z m-580 -10 c13 -16
12 -17 -3 -4 -17 13 -22 21 -14 21 2 0 10 -8 17 -17z m-1686 -3 c-3 -5 -12
-10 -18 -10 -7 0 -6 4 3 10 19 12 23 12 15 0z m1383 -15 c-6 -14 -13 -23 -15
-21 -5 5 15 46 22 46 3 0 -1 -11 -7 -25z m-480 -2 c-8 -10 -20 -27 -26 -38 -6
-11 -12 -15 -12 -9 0 12 38 64 47 64 3 0 -1 -8 -9 -17z m-602 -35 c23 -45 12
-43 -13 3 -12 21 -17 37 -12 33 5 -3 16 -19 25 -36z m-686 13 c-5 -11 -15 -23
-21 -27 -6 -3 -3 5 6 20 20 30 30 35 15 7z m1927 13 c-3 -3 -12 -4 -19 -1 -8
3 -5 6 6 6 11 1 17 -2 13 -5z m118 -14 c-10 -11 -22 -20 -28 -20 -5 0 1 9 14
20 31 25 37 25 14 0z m472 14 c-3 -3 -12 -4 -19 -1 -8 3 -5 6 6 6 11 1 17 -2
13 -5z m-1357 -39 c0 -5 -5 -3 -10 5 -5 8 -10 20 -10 25 0 6 5 3 10 -5 5 -8
10 -19 10 -25z m1480 31 c0 -2 -8 -10 -17 -17 -16 -13 -17 -12 -4 4 13 16 21
21 21 13z m-2210 -19 c0 -2 -10 -12 -22 -23 l-23 -19 19 23 c18 21 26 27 26
19z m160 -19 c11 -12 20 -29 19 -37 0 -14 -1 -14 -6 -1 -3 8 -15 25 -26 38
-11 12 -18 22 -14 22 3 0 15 -10 27 -22z m314 -3 c-9 -14 -18 -25 -21 -25 -5
0 5 18 20 38 17 22 18 13 1 -13z m165 -24 c0 -14 -1 -14 -6 -1 -3 8 -10 24
-15 35 -9 20 -9 20 6 1 9 -11 16 -27 15 -35z m476 29 c10 -11 16 -20 13 -20
-3 0 -13 9 -23 20 -10 11 -16 20 -13 20 3 0 13 -9 23 -20z m-2254 -55 l10 -20
-16 20 c-9 11 -21 29 -26 40 l-10 20 16 -20 c9 -11 21 -29 26 -40z m-281 10
c13 -14 21 -25 18 -25 -2 0 -15 11 -28 25 -13 14 -21 25 -18 25 2 0 15 -11 28
-25z m-90 -10 c24 -22 39 -73 33 -108 -6 -29 -22 -47 -247 -275 -150 -151
-169 -174 -156 -187 13 -13 22 -5 73 61 31 41 57 80 57 86 0 18 233 -230 258
-274 28 -52 29 -127 2 -186 -31 -67 -44 -65 -123 19 -39 41 -125 131 -192 201
-67 69 -129 142 -138 161 -17 36 -22 109 -11 168 5 27 42 70 169 198 l163 164
46 -5 c26 -3 56 -14 66 -23z m2844 9 c3 -8 2 -12 -4 -9 -6 3 -10 10 -10 16 0
14 7 11 14 -7z m-1943 -11 c13 -16 12 -17 -3 -4 -17 13 -22 21 -14 21 2 0 10
-8 17 -17z m2146 11 c-3 -3 -12 -4 -19 -1 -8 3 -5 6 6 6 11 1 17 -2 13 -5z
m-2047 -34 c-12 -16 -24 -30 -26 -30 -3 0 4 14 16 30 12 17 24 30 26 30 3 0
-4 -13 -16 -30z m1247 -152 c-2 -35 -3 -7 -3 62 0 69 1 97 3 63 2 -35 2 -91 0
-125z m70 160 c-3 -8 -6 -5 -6 6 -1 11 2 17 5 13 3 -3 4 -12 1 -19z m-620 -20
c-3 -7 -5 -2 -5 12 0 14 2 19 5 13 2 -7 2 -19 0 -25z m-240 0 c-3 -8 -6 -5 -6
6 -1 11 2 17 5 13 3 -3 4 -12 1 -19z m330 0 c-3 -8 -6 -5 -6 6 -1 11 2 17 5
13 3 -3 4 -12 1 -19z m170 -145 c-2 -32 -3 -6 -3 57 0 63 1 89 3 58 2 -32 2
-84 0 -115z m-1812 137 c10 -11 16 -20 13 -20 -3 0 -13 9 -23 20 -10 11 -16
20 -13 20 3 0 13 -9 23 -20z m254 -30 c0 -9 -4 -8 -9 5 -5 11 -9 27 -9 35 0 9
4 8 9 -5 5 -11 9 -27 9 -35z m531 30 c6 -11 8 -20 6 -20 -3 0 -10 9 -16 20 -6
11 -8 20 -6 20 3 0 10 -9 16 -20z m1387 -12 c-3 -8 -6 -5 -6 6 -1 11 2 17 5
13 3 -3 4 -12 1 -19z m853 -22 c0 -12 -5 -7 -19 24 -11 24 -11 24 3 6 9 -11
16 -24 16 -30z m578 19 c-3 -3 -9 2 -12 12 -6 14 -5 15 5 6 7 -7 10 -15 7 -18z
m-3566 -57 c-8 -8 -9 -4 -5 13 4 13 8 18 11 10 2 -7 -1 -18 -6 -23z m1498 19
c0 -2 -10 -12 -22 -23 l-23 -19 19 23 c18 21 26 27 26 19z m91 -24 c-12 -20
-14 -14 -5 12 4 9 9 14 11 11 3 -2 0 -13 -6 -23z m569 -8 c0 -5 -5 -3 -10 5
-5 8 -10 20 -10 25 0 6 5 3 10 -5 5 -8 10 -19 10 -25z m105 15 c10 -11 16 -20
13 -20 -3 0 -13 9 -23 20 -10 11 -16 20 -13 20 3 0 13 -9 23 -20z m439 1 c4
-5 -2 -7 -12 -4 -28 7 -58 -42 -41 -65 12 -16 12 -16 -5 0 -18 16 -18 17 3 47
22 31 45 40 55 22z m589 2 c3 -5 -5 -8 -18 -8 -13 0 -21 3 -18 8 2 4 10 7 18
7 8 0 16 -3 18 -7z m188 -26 c-10 -9 -11 -8 -5 6 3 10 9 15 12 12 3 -3 0 -11
-7 -18z m-3264 -9 c-3 -8 -6 -5 -6 6 -1 11 2 17 5 13 3 -3 4 -12 1 -19z m-303
-62 c-38 -40 -73 -74 -79 -75 -5 0 24 33 65 74 41 41 77 75 79 75 2 0 -27 -33
-65 -74z m3326 59 c-10 -13 -9 -19 6 -38 l18 -22 -24 22 c-20 18 -21 24 -10
37 7 9 15 16 17 16 3 0 0 -7 -7 -15z m-1667 -10 c-3 -9 -8 -14 -10 -11 -3 3
-2 9 2 15 9 16 15 13 8 -4z m608 -2 c13 -16 12 -17 -3 -4 -17 13 -22 21 -14
21 2 0 10 -8 17 -17z m-1985 -51 c-8 -15 -22 -35 -32 -42 -9 -8 -5 3 10 24 14
21 26 46 27 55 0 9 3 11 5 4 3 -6 -2 -25 -10 -41z m3374 44 c0 -2 -8 -10 -17
-17 -16 -13 -17 -12 -4 4 13 16 21 21 21 13z m-2279 -33 c13 -16 12 -17 -3 -4
-17 13 -22 21 -14 21 2 0 10 -8 17 -17z m1189 7 c0 -5 -2 -10 -4 -10 -3 0 -8
5 -11 10 -3 6 -1 10 4 10 6 0 11 -4 11 -10z m-1922 -37 c-16 -2 -40 -2 -55 0
-16 2 -3 4 27 4 30 0 43 -2 28 -4z m490 0 c-16 -2 -40 -2 -55 0 -16 2 -3 4 27
4 30 0 43 -2 28 -4z m-928 -66 c0 -2 -10 -12 -22 -23 l-23 -19 19 23 c18 21
26 27 26 19z m-334 -48 c-38 -45 -35 -92 8 -135 19 -19 30 -34 26 -34 -4 0
-22 16 -39 35 -40 46 -41 91 -5 134 14 17 28 31 31 31 3 0 -7 -14 -21 -31z
m1467 -66 c-13 -2 -35 -2 -50 0 -16 2 -5 4 22 4 28 0 40 -2 28 -4z m-1273 -26
c0 -2 -17 -19 -37 -38 l-38 -34 34 38 c33 34 41 42 41 34z m593 -114 c-67 -3
-82 -7 -86 -21 -3 -12 -5 -11 -6 6 -1 21 2 22 87 20 l87 -2 -82 -3z m177 3 c0
-2 -7 -6 -15 -10 -8 -3 -15 -1 -15 4 0 6 7 10 15 10 8 0 15 -2 15 -4z m574 -5
c4 -5 -3 -7 -14 -4 -23 6 -26 13 -6 13 8 0 17 -4 20 -9z m136 -1 c0 -5 -7 -7
-15 -4 -8 4 -15 8 -15 10 0 2 7 4 15 4 8 0 15 -4 15 -10z m877 4 c-3 -3 -12
-4 -19 -1 -8 3 -5 6 6 6 11 1 17 -2 13 -5z m673 -99 c0 -58 -3 -105 -7 -105
-5 0 -7 45 -5 99 3 89 1 100 -15 104 -14 4 -13 5 5 6 21 1 22 -1 22 -104z
m114 97 c2 -4 -4 -8 -14 -8 -10 0 -16 4 -14 8 3 4 9 8 14 8 5 0 11 -4 14 -8z
m439 1 c-7 -2 -13 -20 -13 -39 0 -34 -12 -45 -26 -22 -4 7 -3 8 4 4 8 -5 12 4
12 28 0 28 4 36 18 35 10 0 12 -3 5 -6z m-2208 -43 c10 -11 16 -20 13 -20 -3
0 -13 9 -23 20 -10 11 -16 20 -13 20 3 0 13 -9 23 -20z m926 -37 c-11 -21 -20
-35 -21 -31 0 12 33 78 38 74 2 -2 -6 -21 -17 -43z m146 -100 c-2 -2 -17 25
-32 59 -40 93 -40 104 0 19 20 -40 34 -75 32 -78z m-83 121 c4 -9 4 -19 1 -22
-3 -3 -5 0 -5 6 0 20 -18 13 -25 -9 -4 -11 -9 -18 -11 -16 -6 6 17 57 27 57 4
0 10 -7 13 -16z m-1364 3 c0 -2 -10 -12 -22 -23 l-23 -19 19 23 c18 21 26 27
26 19z m424 -99 c21 -27 36 -48 33 -48 -3 0 -27 28 -54 61 l-48 62 -6 -64 -6
-64 -1 78 -2 79 23 -29 c13 -15 40 -49 61 -75z m360 86 c3 -8 2 -12 -4 -9 -6
3 -10 10 -10 16 0 14 7 11 14 -7z m36 -4 c6 -11 8 -20 6 -20 -3 0 -10 9 -16
20 -6 11 -8 20 -6 20 3 0 10 -9 16 -20z m38 -10 c-12 -16 -23 -30 -25 -30 -2
0 4 14 14 30 9 17 21 30 25 30 5 0 -1 -13 -14 -30z m33 -3 l-24 -22 19 27 c10
14 21 24 23 22 3 -3 -6 -15 -18 -27z m93 26 c-5 -5 -12 -12 -16 -18 -4 -6 -8
-2 -8 8 0 9 7 17 17 17 9 0 12 -3 7 -7z m79 0 c-7 -2 -19 -2 -25 0 -7 3 -2 5
12 5 14 0 19 -2 13 -5z m514 -5 c-9 -4 -26 -4 -39 1 -20 8 -18 9 15 9 26 -1
34 -4 24 -10z m218 2 c8 -13 -5 -13 -25 0 -13 8 -13 10 2 10 9 0 20 -4 23 -10z
m352 -102 c-2 -24 -4 -7 -4 37 0 44 2 63 4 43 2 -21 2 -57 0 -80z m123 109 c0
-2 -10 -12 -22 -23 l-23 -19 19 23 c18 21 26 27 26 19z m-2179 -24 c13 -16 12
-17 -3 -4 -17 13 -22 21 -14 21 2 0 10 -8 17 -17z m618 -17 c-3 -3 -11 5 -18
17 -13 21 -12 21 5 5 10 -10 16 -20 13 -22z m1191 14 c6 -11 8 -20 6 -20 -3 0
-10 9 -16 20 -6 11 -8 20 -6 20 3 0 10 -9 16 -20z m-1485 -10 c10 -11 16 -20
13 -20 -3 0 -13 9 -23 20 -10 11 -16 20 -13 20 3 0 13 -9 23 -20z m2036 -7
c-12 -20 -14 -14 -5 12 4 9 9 14 11 11 3 -2 0 -13 -6 -23z m-2659 5 c-7 -7
-12 -34 -12 -60 0 -26 -3 -48 -8 -48 -10 0 -2 93 10 108 6 6 13 12 16 12 3 0
1 -5 -6 -12z m781 -3 c-3 -9 -8 -14 -10 -11 -3 3 -2 9 2 15 9 16 15 13 8 -4z
m47 11 c0 -2 -8 -10 -17 -17 -16 -13 -17 -12 -4 4 13 16 21 21 21 13z m997 -2
c-3 -3 -12 -4 -19 -1 -8 3 -5 6 6 6 11 1 17 -2 13 -5z m61 -19 c-3 -3 -9 2
-12 12 -6 14 -5 15 5 6 7 -7 10 -15 7 -18z m169 19 c-3 -3 -12 -4 -19 -1 -8 3
-5 6 6 6 11 1 17 -2 13 -5z m713 -16 c0 -6 -6 -5 -15 2 -8 7 -15 14 -15 16 0
2 7 1 15 -2 8 -4 15 -11 15 -16z m-1533 -35 c-3 -10 -5 -2 -5 17 0 19 2 27 5
18 2 -10 2 -26 0 -35z m621 22 c-3 -3 -9 2 -12 12 -6 14 -5 15 5 6 7 -7 10
-15 7 -18z m155 10 c-3 -9 -8 -14 -10 -11 -3 3 -2 9 2 15 9 16 15 13 8 -4z
m680 0 c-3 -9 -8 -14 -10 -11 -3 3 -2 9 2 15 9 16 15 13 8 -4z m-2631 -57 c2
-21 0 -38 -4 -38 -4 0 -7 24 -7 53 1 54 5 49 11 -15z m2375 25 c-3 -10 -5 -4
-5 12 0 17 2 24 5 18 2 -7 2 -21 0 -30z m-1360 20 c-4 -3 -1 -13 6 -22 11 -14
10 -14 -5 -2 -16 12 -16 31 -1 31 4 0 3 -3 0 -7z m523 -5 c0 -5 -18 -8 -40 -8
-22 0 -40 3 -40 8 0 4 18 7 40 7 22 0 40 -3 40 -7z m1094 -24 c3 -8 2 -12 -4
-9 -6 3 -10 10 -10 16 0 14 7 11 14 -7z m-2483 -11 c13 -16 12 -17 -3 -4 -17
13 -22 21 -14 21 2 0 10 -8 17 -17z m579 -18 c0 -5 -5 -3 -10 5 -5 8 -10 20
-10 25 0 6 5 3 10 -5 5 -8 10 -19 10 -25z m280 3 c15 -21 17 -28 6 -19 -16 13
-41 51 -33 51 2 0 14 -15 27 -32z m401 4 c-6 -11 -7 -22 -4 -26 3 -3 1 -6 -5
-6 -7 0 -12 2 -12 5 0 10 24 55 27 51 3 -2 0 -13 -6 -24z m614 9 c-3 -6 -11
-11 -16 -11 -5 0 -4 6 3 14 14 16 24 13 13 -3z m16 -24 l-24 -22 19 27 c10 14
21 24 23 22 3 -3 -6 -15 -18 -27z m-1071 3 c-6 -11 -13 -20 -16 -20 -2 0 0 9
6 20 6 11 13 20 16 20 2 0 0 -9 -6 -20z m89 -14 c-3 -3 -11 5 -18 17 -13 21
-12 21 5 5 10 -10 16 -20 13 -22z m101 9 c14 -19 14 -19 -2 -6 -10 7 -18 18
-18 24 0 6 1 8 3 6 1 -2 9 -13 17 -24z m1240 10 c7 -9 8 -15 2 -15 -5 0 -12 7
-16 15 -3 8 -4 15 -2 15 2 0 9 -7 16 -15z m111 -8 c-10 -9 -11 -8 -5 6 3 10 9
15 12 12 3 -3 0 -11 -7 -18z m-1578 -2 c-3 -9 -8 -14 -10 -11 -3 3 -2 9 2 15
9 16 15 13 8 -4z m887 11 c0 -2 -8 -10 -17 -17 -16 -13 -17 -12 -4 4 13 16 21
21 21 13z m-53 -32 c-3 -3 -12 -4 -19 -1 -8 3 -5 6 6 6 11 1 17 -2 13 -5z"/>
</g>
</svg>
